<svg xmlns="http://www.w3.org/2000/svg" width="24" height="24" viewBox="0 0 24 24">
    <g fill="none" fill-rule="evenodd">
        <g>
            <g>
                <g>
                    <g>
                        <g>
                            <path d="M0 0H24V24H0z" transform="translate(-534.000000, -402.000000) translate(40.000000, 140.000000) translate(40.000000, 138.000000) translate(448.000000, 118.000000) translate(6.000000, 6.000000)"/>
                            <path fill="#FFF" d="M18 17c.552 0 1 .448 1 1s-.448 1-1 1H6c-.552 0-1-.448-1-1s.448-1 1-1h12zm0-6c.552 0 1 .448 1 1s-.448 1-1 1H6c-.552 0-1-.448-1-1s.448-1 1-1h12zm0-6c.552 0 1 .448 1 1s-.448 1-1 1H6c-.552 0-1-.448-1-1s.448-1 1-1h12z" transform="translate(-534.000000, -402.000000) translate(40.000000, 140.000000) translate(40.000000, 138.000000) translate(448.000000, 118.000000) translate(6.000000, 6.000000)"/>
                            <path fill="#B893AD" d="M10 17c.552 0 1 .448 1 1s-.448 1-1 1H6c-.552 0-1-.448-1-1s.448-1 1-1h4zm0-6c.552 0 1 .448 1 1s-.448 1-1 1H6c-.552 0-1-.448-1-1s.448-1 1-1h4zm0-6c.552 0 1 .448 1 1s-.448 1-1 1H6c-.552 0-1-.448-1-1s.448-1 1-1h4z" transform="translate(-534.000000, -402.000000) translate(40.000000, 140.000000) translate(40.000000, 138.000000) translate(448.000000, 118.000000) translate(6.000000, 6.000000)"/>
                        </g>
                    </g>
                </g>
            </g>
        </g>
    </g>
</svg>
